<svg xmlns="http://www.w3.org/2000/svg" xmlns:xlink="http://www.w3.org/1999/xlink" width="1950" zoomAndPan="magnify" viewBox="0 0 1312.5 449.999984" height="600" preserveAspectRatio="xMidYMid meet" version="1.0"><defs><g/><clipPath id="83f8998c7a"><path d="M 99 0.0859375 L 1312 0.0859375 L 1312 441 L 99 441 Z M 99 0.0859375 " clip-rule="nonzero"/></clipPath><clipPath id="32498803dd"><path d="M 982 52 L 1213 52 L 1213 327 L 982 327 Z M 982 52 " clip-rule="nonzero"/></clipPath><clipPath id="e7ff04f5fe"><rect x="0" width="1213" y="0" height="441"/></clipPath></defs><g clip-path="url(#83f8998c7a)"><g transform="matrix(1, 0, 0, 1, 99, 0.000000000000012157)"><g clip-path="url(#e7ff04f5fe)"><g fill="#f5f1e8" fill-opacity="1"><g transform="translate(0.465512, 320.708213)"><g><path d="M 285.96875 -267.984375 L 285.96875 0 L 195.625 0 L 195.625 -98.765625 L 112.171875 -98.765625 L 112.171875 0 L 21.828125 0 L 21.828125 -267.984375 L 112.171875 -267.984375 L 112.171875 -173.03125 L 195.625 -173.03125 L 195.625 -267.984375 Z M 285.96875 -267.984375 "/></g></g></g><g fill="#f5f1e8" fill-opacity="1"><g transform="translate(327.405194, 320.708213)"><g><path d="M 204.4375 -46.703125 L 102.59375 -46.703125 L 84.609375 0 L -7.28125 0 L 109.875 -267.984375 L 198.6875 -267.984375 L 315.828125 0 L 222.421875 0 Z M 179.546875 -111.78125 L 153.515625 -179.15625 L 127.484375 -111.78125 Z M 179.546875 -111.78125 "/></g></g></g><g fill="#f5f1e8" fill-opacity="1"><g transform="translate(655.110487, 320.708213)"><g><path d="M 130.921875 -88.8125 L 110.640625 -66.234375 L 110.640625 0 L 21.828125 0 L 21.828125 -267.984375 L 110.640625 -267.984375 L 110.640625 -170.734375 L 198.6875 -267.984375 L 297.078125 -267.984375 L 189.875 -150.0625 L 302.4375 0 L 197.921875 0 Z M 130.921875 -88.8125 "/></g></g></g><g clip-path="url(#32498803dd)"><g fill="#f5f1e8" fill-opacity="1"><g transform="translate(963.291076, 320.708213)"><g><path d="M 150.0625 6.125 C 108.976562 6.125 76.953125 -4.972656 53.984375 -27.171875 C 31.015625 -49.378906 19.53125 -80.519531 19.53125 -120.59375 L 19.53125 -267.984375 L 109.875 -267.984375 L 109.875 -123.265625 C 109.875 -103.617188 113.378906 -89.328125 120.390625 -80.390625 C 127.410156 -71.460938 137.554688 -67 150.828125 -67 C 164.097656 -67 174.242188 -71.460938 181.265625 -80.390625 C 188.285156 -89.328125 191.796875 -103.617188 191.796875 -123.265625 L 191.796875 -267.984375 L 280.609375 -267.984375 L 280.609375 -120.59375 C 280.609375 -80.519531 269.125 -49.378906 246.15625 -27.171875 C 223.1875 -4.972656 191.15625 6.125 150.0625 6.125 Z M 150.0625 6.125 "/></g></g></g></g></g></g></g></svg>