<svg xmlns="http://www.w3.org/2000/svg" xmlns:xlink="http://www.w3.org/1999/xlink" width="1040" zoomAndPan="magnify" viewBox="0 0 780 779.999994" height="1040" preserveAspectRatio="xMidYMid meet" version="1.0"><defs><g/><clipPath id="cfbcdfd646"><rect x="0" width="564" y="0" height="199"/></clipPath></defs><rect x="-78" width="936" fill="#ffffff" y="-77.999999" height="935.999992" fill-opacity="1"/><rect x="-78" width="936" fill="#3e2723" y="-77.999999" height="935.999992" fill-opacity="1"/><g transform="matrix(1, 0, 0, 1, 114, 285)"><g clip-path="url(#cfbcdfd646)"><g fill="#f5f1e8" fill-opacity="1"><g transform="translate(0.909204, 146.691542)"><g><path d="M 124.578125 -116.734375 L 124.578125 0 L 85.21875 0 L 85.21875 -43.03125 L 48.859375 -43.03125 L 48.859375 0 L 9.5 0 L 9.5 -116.734375 L 48.859375 -116.734375 L 48.859375 -75.375 L 85.21875 -75.375 L 85.21875 -116.734375 Z M 124.578125 -116.734375 "/></g></g></g><g fill="#f5f1e8" fill-opacity="1"><g transform="translate(143.327624, 146.691542)"><g><path d="M 89.046875 -20.34375 L 44.6875 -20.34375 L 36.859375 0 L -3.171875 0 L 47.859375 -116.734375 L 86.546875 -116.734375 L 137.578125 0 L 96.890625 0 Z M 78.21875 -48.703125 L 66.875 -78.046875 L 55.53125 -48.703125 Z M 78.21875 -48.703125 "/></g></g></g><g fill="#f5f1e8" fill-opacity="1"><g transform="translate(286.079552, 146.691542)"><g><path d="M 57.03125 -38.6875 L 48.1875 -28.84375 L 48.1875 0 L 9.5 0 L 9.5 -116.734375 L 48.1875 -116.734375 L 48.1875 -74.375 L 86.546875 -116.734375 L 129.40625 -116.734375 L 82.71875 -65.375 L 131.75 0 L 86.21875 0 Z M 57.03125 -38.6875 "/></g></g></g><g fill="#f5f1e8" fill-opacity="1"><g transform="translate(420.326311, 146.691542)"><g><path d="M 65.375 2.671875 C 47.46875 2.671875 33.507812 -2.160156 23.5 -11.828125 C 13.5 -21.503906 8.5 -35.070312 8.5 -52.53125 L 8.5 -116.734375 L 47.859375 -116.734375 L 47.859375 -53.703125 C 47.859375 -45.140625 49.382812 -38.910156 52.4375 -35.015625 C 55.5 -31.128906 59.921875 -29.1875 65.703125 -29.1875 C 71.484375 -29.1875 75.898438 -31.128906 78.953125 -35.015625 C 82.015625 -38.910156 83.546875 -45.140625 83.546875 -53.703125 L 83.546875 -116.734375 L 122.234375 -116.734375 L 122.234375 -52.53125 C 122.234375 -35.070312 117.226562 -21.503906 107.21875 -11.828125 C 97.21875 -2.160156 83.269531 2.671875 65.375 2.671875 Z M 65.375 2.671875 "/></g></g></g></g></g></svg>